<?xml version="1.0" encoding="UTF-8" standalone="no"?>
<svg
   width="256"
   height="256"
   viewBox="0 0 256 256"
   fill="none"
   version="1.1"
   id="svg58"
   sodipodi:docname="original.svg"
   inkscape:version="1.2 (dc2aedaf03, 2022-05-15)"
   xmlns:inkscape="http://www.inkscape.org/namespaces/inkscape"
   xmlns:sodipodi="http://sodipodi.sourceforge.net/DTD/sodipodi-0.dtd"
   xmlns="http://www.w3.org/2000/svg"
   xmlns:svg="http://www.w3.org/2000/svg">
  <sodipodi:namedview
     id="namedview60"
     pagecolor="#ffffff"
     bordercolor="#666666"
     borderopacity="1.0"
     inkscape:showpageshadow="2"
     inkscape:pageopacity="0.0"
     inkscape:pagecheckerboard="0"
     inkscape:deskcolor="#d1d1d1"
     showgrid="false"
     inkscape:zoom="7.375"
     inkscape:cx="177.76271"
     inkscape:cy="62.508475"
     inkscape:window-width="1920"
     inkscape:window-height="1139"
     inkscape:window-x="2560"
     inkscape:window-y="0"
     inkscape:window-maximized="1"
     inkscape:current-layer="svg58" />
  <rect
     width="256"
     height="256"
     fill="url(#paint0_radial_12_20)"
     id="rect2" />
  <g
     filter="url(#filter0_d_12_20)"
     id="g10">
    <path
       d="M159.415 173.63C159.415 147.934 145.2 132.759 117.786 125.879C102.556 121.63 85.2956 120.214 75.1422 116.774C64.3797 113.739 58.8969 109.288 58.8969 101.801C58.8969 90.0659 71.0809 81.9725 91.5907 81.9725C111.491 81.9725 123.066 90.0659 126.721 101.599C128.955 106.657 133.626 108.883 138.702 108.883C146.216 108.883 154.338 103.622 154.338 96.136C154.338 94.7196 154.135 93.3033 153.526 91.887C147.028 69.2254 125.706 55.8713 91.9968 55.8713C51.7895 55.8713 30.2644 76.3072 30.2644 102.004C30.2644 121.023 41.6362 134.984 64.3797 142.066C79.8128 147.124 95.8551 147.934 110.07 151.98C122.66 155.42 129.564 163.109 129.564 172.416C129.564 185.163 119.005 195.685 92.606 195.685C70.6748 195.685 56.8662 184.556 53.4141 168.37C51.7895 162.704 47.119 160.276 41.8392 160.276C34.3258 160.276 26 165.537 26 173.833C26 174.844 26.2031 176.058 26.4061 177.07C31.8889 205.599 55.4447 223 92.606 223C137.89 223 159.415 202.969 159.415 173.63Z"
       fill="white"
       id="path4" />
    <path
       d="M213.058 209.646L214.535 86.7496C214.575 83.4643 217.267 80.8347 220.495 80.2224C224.84 79.3982 230 77.4407 230 72.7916C230 64.7614 229.245 44.4647 229.245 37.3514C229.245 30.238 211.794 30.238 211.794 37.3514C211.794 44.4647 211.668 47.9779 211.794 53.1588C211.919 58.3397 204.221 59.6538 198.309 59.4818C192.133 59.302 183.816 59.4818 183.816 53.1588C183.816 51.9241 183.816 49.9973 183.816 49.9973V49.9973C183.816 49.9973 183.816 43.6743 183.816 37.3514C183.816 31.0284 165.786 29.4477 165.786 37.3514C165.786 45.1551 165.786 59.1228 165.786 59.475C165.786 59.486 165.786 59.4846 165.786 59.4957C165.784 59.84 165.748 66.5107 165.748 72.7916C165.748 76.7387 171.61 78.8622 176.159 79.9159C179.118 80.6012 181.442 83.1072 181.499 86.1439L183.816 209.646C183.816 224.416 213.058 224.416 213.058 209.646Z"
       fill="white"
       id="path6" />
    <path
       d="M76.907 111.565L76.7721 111.519L76.635 111.481C71.5731 110.053 68.4504 108.467 66.6492 106.857C65.0895 105.462 64.3969 103.964 64.3969 101.801C64.3969 98.1462 66.1777 94.8193 70.4581 92.1561C74.9089 89.3869 81.9622 87.4725 91.5907 87.4725C110.025 87.4725 118.794 94.7913 121.478 103.261L121.569 103.547L121.69 103.821C125.001 111.319 131.983 114.383 138.702 114.383C143.655 114.383 148.731 112.678 152.66 109.7C156.617 106.701 159.838 102.032 159.838 96.136C159.838 94.2785 159.583 92.2088 158.724 90.0647C151.193 64.3537 126.956 50.3713 91.9968 50.3713C71.0071 50.3713 54.2501 55.7054 42.6182 65.0056C30.8942 74.3795 24.7644 87.4988 24.7644 102.004C24.7644 112.684 27.9878 122.218 34.586 130.054C41.1186 137.813 50.6489 143.545 62.7051 147.305C70.8254 149.963 79.0312 151.482 86.7403 152.821C87.5217 152.957 88.2969 153.091 89.066 153.224C96.0204 154.423 102.477 155.537 108.564 157.27L108.592 157.278L108.62 157.286C119.783 160.336 124.064 166.462 124.064 172.416C124.064 177.084 122.226 181.199 117.797 184.348C113.14 187.66 105.187 190.185 92.606 190.185C82.5646 190.185 74.8213 187.643 69.3097 183.645C63.8339 179.673 60.2485 174.047 58.7931 167.222L58.7534 167.036L58.701 166.854C57.5365 162.793 55.1746 159.646 51.9872 157.582C48.8779 155.568 45.2913 154.776 41.8392 154.776C36.8892 154.776 31.7334 156.481 27.7229 159.604C23.6413 162.782 20.5 167.666 20.5 173.833C20.5 175.418 20.7984 177.078 21.0092 178.13C24.0069 193.701 32.0141 206.449 44.4558 215.227C56.8261 223.956 73.1974 228.5 92.606 228.5C115.963 228.5 134.039 223.346 146.39 213.642C158.923 203.795 164.915 189.767 164.915 173.63C164.915 159.707 161.033 148.105 152.995 139.048C145.051 130.097 133.526 124.168 119.195 120.562C111.434 118.402 103.222 116.96 95.9088 115.676L95.512 115.606C87.8755 114.265 81.4964 113.12 76.907 111.565ZM176 86.2471L178.317 209.703C178.336 215.475 181.313 219.822 185.313 222.516C189.162 225.108 193.956 226.224 198.437 226.224C202.919 226.224 207.712 225.108 211.561 222.516C215.566 219.819 218.546 215.465 218.558 209.682L220.035 86.8158C220.036 86.7167 220.068 86.5253 220.317 86.2611C220.588 85.9748 221.02 85.7208 221.52 85.626C223.961 85.1631 227.14 84.3034 229.843 82.5734C232.692 80.7491 235.5 77.5738 235.5 72.7916C235.5 68.6828 235.308 61.5079 235.12 54.5787L235.106 54.0402C234.921 47.2194 234.745 40.7238 234.745 37.3514C234.745 32.8877 231.873 30.0006 229.144 28.5177C226.487 27.0732 223.336 26.5164 220.519 26.5164C217.702 26.5164 214.552 27.0732 211.894 28.5177C209.166 30.0006 206.294 32.8877 206.294 37.3514C206.294 39.8588 206.277 41.9522 206.262 43.8528C206.237 47.0237 206.216 49.6576 206.284 52.7812C206.11 52.881 205.842 53.0122 205.45 53.1536C203.718 53.7779 201.092 54.0604 198.469 53.9841C198.101 53.9734 197.741 53.9636 197.389 53.9541C194.425 53.8739 192.017 53.8087 190.177 53.3132C189.758 53.2004 189.485 53.092 189.316 53.0123V53.0111V53.0036V52.996V52.9884V52.9809V52.9733V52.9657V52.9581V52.9504V52.9428V52.9352V52.9275V52.9198V52.9121V52.9044V52.8967V52.889V52.8813V52.8735V52.8658V52.858V52.8502V52.8424V52.8346V52.8268V52.819V52.8111V52.8033V52.7954V52.7876V52.7797V52.7718V52.7639V52.756V52.7481V52.7402V52.7323V52.7243V52.7164V52.7084V52.7004V52.6924V52.6845V52.6765V52.6685V52.6604V52.6524V52.6444V52.6364V52.6283V52.6203V52.6122V52.6041V52.5961V52.588V52.5799V52.5718V52.5637V52.5556V52.5475V52.5393V52.5312V52.5231V52.5149V52.5068V52.4986V52.4905V52.4823V52.4741V52.4659V52.4578V52.4496V52.4414V52.4332V52.425V52.4168V52.4086V52.4003V52.3921V52.3839V52.3757V52.3674V52.3592V52.3509V52.3427V52.3344V52.3262V52.3179V52.3097V52.3014V52.2931V52.2849V52.2766V52.2683V52.26V52.2518V52.2435V52.2352V52.2269V52.2186V52.2103V52.202V52.1937V52.1854V52.1771V52.1688V52.1605V52.1522V52.1439V52.1356V52.1273V52.119V52.1107V52.1024V52.0941V52.0858V52.0775V52.0692V52.0609V52.0526V52.0443V52.036V52.0277V52.0194V52.0111V52.0028V51.9945V51.9862V51.9779V51.9696V51.9613V51.953V51.9447V51.9364V51.9281V51.9198V51.9115V51.9033V51.895V51.8867V51.8784V51.8702V51.8619V51.8536V51.8454V51.8371V51.8289V51.8206V51.8124V51.8041V51.7959V51.7877V51.7794V51.7712V51.763V51.7548V51.7466V51.7384V51.7302V51.722V51.7138V51.7056V51.6974V51.6892V51.6811V51.6729V51.6647V51.6566V51.6484V51.6403V51.6322V51.624V51.6159V51.6078V51.5997V51.5916V51.5835V51.5754V51.5673V51.5592V51.5512V51.5431V51.5351V51.527V51.519V51.511V51.503V51.4949V51.4869V51.479V51.471V51.463V51.455V51.4471V51.4391V51.4312V51.4233V51.4153V51.4074V51.3995V51.3916V51.3837V51.3759V51.368V51.3602V51.3523V51.3445V51.3367V51.3289V51.3211V51.3133V51.3055V51.2977V51.29V51.2822V51.2745V51.2668V51.2591V51.2514V51.2437V51.236V51.2284V51.2207V51.2131V51.2055V51.1979V51.1903V51.1827V51.1751V51.1676V51.16V51.1525V51.145V51.1375V51.13V51.1225V51.1151V51.1076V51.1002V51.0928V51.0854V51.078V51.0706V51.0632V51.0559V51.0486V51.0412V51.0339V51.0267V51.0194V51.0121V51.0049V50.9977V50.9905V50.9833V50.9761V50.969V50.9618V50.9547V50.9476V50.9405V50.9334V50.9264V50.9193V50.9123V50.9053V50.8983V50.8914V50.8844V50.8775V50.8706V50.8637V50.8568V50.8499V50.8431V50.8363V50.8295V50.8227V50.8159V50.8092V50.8024V50.7957V50.789V50.7824V50.7757V50.7691V50.7625V50.7559V50.7493V50.7428V50.7362V50.7297V50.7232V50.7168V50.7103V50.7039V50.6975V50.6911V50.6847V50.6784V50.6721V50.6658V50.6595V50.6532V50.647V50.6408V50.6346V50.6284V50.6223V50.6162V50.6101V50.604V50.598V50.5919V50.5859V50.5799V50.574V50.568V50.5621V50.5562V50.5504V50.5445V50.5387V50.5329V50.5271V50.5214V50.5157V50.51V50.5043V50.4987V50.493V50.4875V50.4819V50.4763V50.4708V50.4653V50.4599V50.4544V50.449V50.4436V50.4382V50.4329V50.4276V50.4223V50.4171V50.4118V50.4066V50.4014V50.3963V50.3912V50.3861V50.381V50.376V50.3709V50.366V50.361V50.3561V50.3512V50.3463V50.3415V50.3366V50.3319V50.3271V50.3224V50.3177V50.313V50.3084V50.3037V50.2992V50.2946V50.2901V50.2856V50.2811V50.2767V50.2723V50.2679V50.2636V50.2593V50.255V50.2507V50.2465V50.2423V50.2381V50.234V50.2299V50.2259V50.2218V50.2178V50.2139V50.2099V50.206V50.2021V50.1983V50.1945V50.1907V50.187V50.1833V50.1796V50.1759V50.1723V50.1687V50.1652V50.1617V50.1582V50.1548V50.1514V50.148V50.1446V50.1413V50.1381V50.1348V50.1316V50.1284V50.1253V50.1222V50.1191V50.1161V50.1131V50.1101V50.1072V50.1043V50.1015V50.0987V50.0959V50.0931V50.0904V50.0877V50.0851V50.0825V50.0799V50.0774V50.0749V50.0725V50.0701V50.0677V50.0653V50.063V50.0608V50.0585V50.0563V50.0542V50.0521V50.05V50.048V50.046V50.044V50.0421V50.0402V50.0383V50.0365V50.0348V50.033V50.0313V50.0297V50.0281V50.0265V50.025V50.0235V50.022V50.0206V50.0192V50.0179V50.0166V50.0154V50.0142V50.013V50.0119V50.0108V50.0097V50.0087V50.0078V50.0068V50.006V50.0051V50.0043V50.0036V50.0029V50.0022V50.0016V50.001V50.0004V49.9999V49.9995V49.9991V49.9987V49.9984V49.9981V49.9979V49.9977V49.9975V49.9973L183.816 49.9973L189.316 49.9972V49.997V49.9967V49.9962V49.9955V49.9947V49.9938V49.9927V49.9915V49.9901V49.9886V49.987V49.9852V49.9833V49.9812V49.979V49.9766V49.9741V49.9715V49.9687V49.9658V49.9628V49.9596V49.9563V49.9528V49.9492V49.9455V49.9416V49.9376V49.9335V49.9292V49.9248V49.9202V49.9155V49.9107V49.9057V49.9006V49.8954V49.89V49.8845V49.8789V49.8732V49.8673V49.8612V49.8551V49.8488V49.8424V49.8358V49.8291V49.8223V49.8153V49.8083V49.8011V49.7937V49.7863V49.7787V49.7709V49.7631V49.7551V49.747V49.7387V49.7304V49.7219V49.7133V49.7045V49.6956V49.6866V49.6775V49.6683V49.6589V49.6494V49.6398V49.63V49.6201V49.6102V49.6V49.5898V49.5794V49.5689V49.5583V49.5476V49.5367V49.5257V49.5147V49.5034V49.4921V49.4806V49.469V49.4573V49.4455V49.4336V49.4215V49.4094V49.3971V49.3846V49.3721V49.3595V49.3467V49.3338V49.3208V49.3077V49.2945V49.2811V49.2676V49.2541V49.2404V49.2266V49.2126V49.1986V49.1844V49.1702V49.1558V49.1413V49.1267V49.112V49.0972V49.0822V49.0672V49.052V49.0367V49.0213V49.0058V48.9902V48.9745V48.9587V48.9427V48.9267V48.9105V48.8943V48.8779V48.8614V48.8448V48.8281V48.8113V48.7944V48.7774V48.7603V48.7431V48.7257V48.7083V48.6908V48.6731V48.6554V48.6375V48.6195V48.6015V48.5833V48.565V48.5467V48.5282V48.5096V48.4909V48.4721V48.4533V48.4343V48.4152V48.396V48.3767V48.3573V48.3378V48.3182V48.2986V48.2788V48.2589V48.2389V48.2188V48.1987V48.1784V48.158V48.1375V48.117V48.0963V48.0755V48.0547V48.0337V48.0127V47.9916V47.9703V47.949V47.9276V47.906V47.8844V47.8627V47.8409V47.819V47.7971V47.775V47.7528V47.7306V47.7082V47.6858V47.6632V47.6406V47.6179V47.5951V47.5722V47.5492V47.5262V47.503V47.4798V47.4564V47.433V47.4095V47.3859V47.3622V47.3384V47.3146V47.2906V47.2666V47.2425V47.2183V47.194V47.1696V47.1452V47.1206V47.096V47.0713V47.0465V47.0216V46.9967V46.9716V46.9465V46.9213V46.896V46.8707V46.8452V46.8197V46.7941V46.7684V46.7426V46.7168V46.6908V46.6648V46.6387V46.6126V46.5863V46.56V46.5336V46.5071V46.4806V46.4539V46.4272V46.4005V46.3736V46.3467V46.3197V46.2926V46.2654V46.2382V46.2109V46.1835V46.156V46.1285V46.1009V46.0732V46.0455V46.0176V45.9897V45.9618V45.9337V45.9056V45.8774V45.8492V45.8209V45.7925V45.764V45.7355V45.7069V45.6782V45.6495V45.6207V45.5918V45.5629V45.5338V45.5048V45.4756V45.4464V45.4171V45.3878V45.3584V45.3289V45.2994V45.2698V45.2401V45.2104V45.1806V45.1507V45.1208V45.0908V45.0607V45.0306V45.0004V44.9702V44.9399V44.9095V44.8791V44.8486V44.8181V44.7875V44.7568V44.7261V44.6953V44.6645V44.6336V44.6026V44.5716V44.5405V44.5093V44.4782V44.4469V44.4156V44.3842V44.3528V44.3213V44.2898V44.2582V44.2265V44.1948V44.1631V44.1313V44.0994V44.0675V44.0355V44.0035V43.9714V43.9393V43.9071V43.8749V43.8426V43.8102V43.7778V43.7454V43.7129V43.6803V43.6477V43.6151V43.5824V43.5497V43.5169V43.484V43.4511V43.4182V43.3852V43.3522V43.3191V43.286V43.2528V43.2195V43.1863V43.153V43.1196V43.0862V43.0527V43.0192V42.9857V42.9521V42.9185V42.8848V42.8511V42.8173V42.7835V42.7497V42.7158V42.6818V42.6479V42.6139V42.5798V42.5457V42.5116V42.4774V42.4432V42.4089V42.3746V42.3403V42.3059V42.2715V42.237V42.2025V42.168V42.1334V42.0988V42.0642V42.0295V41.9948V41.96V41.9253V41.8904V41.8556V41.8207V41.7858V41.7508V41.7158V41.6808V41.6457V41.6106V41.5755V41.5403V41.5051V41.4699V41.4346V41.3993V41.364V41.3287V41.2933V41.2579V41.2224V41.1869V41.1514V41.1159V41.0803V41.0447V41.0091V40.9735V40.9378V40.9021V40.8664V40.8306V40.7948V40.759V40.7232V40.6873V40.6514V40.6155V40.5795V40.5436V40.5076V40.4716V40.4355V40.3995V40.3634V40.3273V40.2911V40.255V40.2188V40.1826V40.1464V40.1101V40.0739V40.0376V40.0013V39.965V39.9286V39.8923V39.8559V39.8195V39.783V39.7466V39.7101V39.6737V39.6372V39.6006V39.5641V39.5276V39.491V39.4544V39.4178V39.3812V39.3446V39.3079V39.2713V39.2346V39.1979V39.1612V39.1245V39.0878V39.051V39.0143V38.9775V38.9407V38.9039V38.8671V38.8303V38.7935V38.7566V38.7198V38.6829V38.6461V38.6092V38.5723V38.5354V38.4985V38.4616V38.4246V38.3877V38.3508V38.3138V38.2769V38.2399V38.2029V38.1659V38.129V38.092V38.055V38.018V37.981V37.944V37.9069V37.8699V37.8329V37.7959V37.7588V37.7218V37.6848V37.6477V37.6107V37.5737V37.5366V37.4996V37.4625V37.4255V37.3884V37.3514C189.316 32.8033 186.055 30.0534 183.615 28.7342C181.029 27.3362 177.919 26.6477 175.042 26.5216C172.196 26.3969 168.908 26.7945 166.099 28.2311C163.085 29.7724 160.286 32.789 160.286 37.3514V37.3972V37.4431V37.4892V37.5354V37.5817V37.6282V37.6749V37.7216V37.7685V37.8155V37.8627V37.91V37.9574V38.0049V38.0526V38.1004V38.1484V38.1964V38.2446V38.2929V38.3413V38.3899V38.4386V38.4874V38.5363V38.5853V38.6345V38.6837V38.7331V38.7826V38.8322V38.882V38.9318V38.9818V39.0318V39.082V39.1323V39.1827V39.2332V39.2838V39.3345V39.3853V39.4363V39.4873V39.5384V39.5896V39.641V39.6924V39.7439V39.7955V39.8473V39.8991V39.951V40.003V40.0551V40.1073V40.1596V40.212V40.2644V40.317V40.3696V40.4224V40.4752V40.5281V40.5811V40.6341V40.6873V40.7405V40.7938V40.8472V40.9007V40.9542V41.0079V41.0616V41.1154V41.1692V41.2231V41.2772V41.3312V41.3854V41.4396V41.4939V41.5482V41.6027V41.6571V41.7117V41.7663V41.821V41.8758V41.9306V41.9854V42.0404V42.0954V42.1504V42.2055V42.2607V42.3159V42.3712V42.4265V42.4819V42.5373V42.5928V42.6484V42.704V42.7596V42.8153V42.871V42.9268V42.9826V43.0385V43.0944V43.1504V43.2064V43.2624V43.3185V43.3746V43.4308V43.487V43.5432V43.5995V43.6558V43.7121V43.7685V43.8249V43.8814V43.9378V43.9943V44.0508V44.1074V44.164V44.2206V44.2772V44.3339V44.3906V44.4473V44.504V44.5607V44.6175V44.6743V44.7311V44.7879V44.8447V44.9016V44.9585V45.0153V45.0722V45.1291V45.1861V45.243V45.2999V45.3569V45.4138V45.4708V45.5277V45.5847V45.6417V45.6986V45.7556V45.8126V45.8696V45.9266V45.9835V46.0405V46.0975V46.1545V46.2114V46.2684V46.3253V46.3823V46.4392V46.4961V46.5531V46.61V46.6669V46.7237V46.7806V46.8375V46.8943V46.9511V47.0079V47.0647V47.1215V47.1782V47.235V47.2917V47.3483V47.405V47.4616V47.5183V47.5748V47.6314V47.6879V47.7444V47.8009V47.8573V47.9137V47.9701V48.0265V48.0828V48.139V48.1953V48.2515V48.3077V48.3638V48.4199V48.4759V48.5319V48.5879V48.6438V48.6997V48.7555V48.8113V48.867V48.9227V48.9784V49.034V49.0895V49.145V49.2005V49.2559V49.3112V49.3665V49.4217V49.4769V49.532V49.5871V49.6421V49.697V49.7519V49.8067V49.8614V49.9161V49.9708V50.0253V50.0798V50.1343V50.1886V50.2429V50.2971V50.3513V50.4054V50.4594V50.5133V50.5672V50.621V50.6747V50.7283V50.7819V50.8354V50.8888V50.9421V50.9953V51.0485V51.1016V51.1546V51.2075V51.2603V51.3131V51.3657V51.4183V51.4707V51.5231V51.5754V51.6276V51.6797V51.7318V51.7837V51.8355V51.8872V51.9389V51.9904V52.0419V52.0932V52.1444V52.1956V52.2466V52.2976V52.3484V52.3991V52.4497V52.5002V52.5506V52.6009V52.6511V52.7012V52.7512V52.801V52.8508V52.9004V52.9499V52.9993V53.0486V53.0978V53.1468V53.1958V53.2446V53.2933V53.3418V53.3903V53.4386V53.4868V53.5349V53.5828V53.6306V53.6783V53.7259V53.7733V53.8206V53.8678V53.9148V53.9617V54.0085V54.0551V54.1017V54.148V54.1942V54.2403V54.2863V54.3321V54.3778V54.4233V54.4687V54.5139V54.559V54.604V54.6488V54.6934V54.738V54.7823V54.8265V54.8706V54.9145V54.9583V55.0019V55.0453V55.0886V55.1317V55.1747V55.2175V55.2602V55.3027V55.3451V55.3872V55.4293V55.4711V55.5128V55.5543V55.5957V55.6369V55.6779V55.7188V55.7595V55.8V55.8404V55.8805V55.9206V55.9604V56V56.0395V56.0788V56.118V56.1569V56.1957V56.2343V56.2727V56.3109V56.349V56.3868V56.4245V56.462V56.4993V56.5364V56.5734V56.6101V56.6467V56.683V56.7192V56.7552V56.791V56.8266V56.862V56.8972V56.9322V56.967V57.0016V57.036V57.0702V57.1042V57.138V57.1716V57.205V57.2382V57.2712V57.304V57.3366V57.3689V57.4011V57.433V57.4648V57.4963V57.5276V57.5587V57.5896V57.6203V57.6507V57.681V57.711V57.7408V57.7704V57.7997V57.8289V57.8578V57.8865V57.915V57.9432V57.9712V57.999V58.0266V58.0539V58.081V58.1079V58.1346V58.161V58.1871V58.2131V58.2388V58.2643V58.2895V58.3145V58.3393V58.3638V58.3881V58.4121V58.4359V58.4595V58.4828V58.5059V58.5287V58.5513V58.5736V58.5957V58.6176V58.6391V58.6605V58.6816V58.7024V58.723V58.7433V58.7634V58.7832V58.8027V58.822V58.8411V58.8599V58.8784V58.8966V58.9146V58.9324V58.9498V58.967V58.984V59.0007V59.0171V59.0332V59.0491V59.0647V59.08V59.0951V59.1098V59.1244V59.1386V59.1525V59.1662V59.1796V59.1928V59.2056V59.2182V59.2305V59.2425V59.2542V59.2656V59.2768V59.2877V59.2983V59.3086V59.3186V59.3283V59.3377V59.3469V59.3557V59.3643V59.3725V59.3805V59.3882V59.3956V59.4027V59.4095V59.4159V59.4221V59.428V59.4336V59.4389V59.4439V59.4486V59.4529V59.457V59.4591V59.4608V59.4642V59.4656C160.284 59.8116 160.248 66.4948 160.248 72.7916C160.248 77.854 164.03 80.7997 166.53 82.2206C169.253 83.7679 172.464 84.7056 174.918 85.274C175.284 85.3589 175.59 85.556 175.783 85.7755C175.962 85.9798 175.998 86.1417 176 86.2471Z"
       stroke="#FFD600"
       stroke-width="17"
       id="path8" />
  </g>
  <path
     d="m 76.907,111.565 -0.1349,-0.046 -0.1371,-0.038 c -5.0619,-1.428 -8.1846,-3.014 -9.9858,-4.624 -1.5597,-1.395 -2.2523,-2.893 -2.2523,-5.056 0,-3.6548 1.7808,-6.9817 6.0612,-9.6449 4.4508,-2.7692 11.5041,-4.6836 21.1326,-4.6836 18.4343,0 27.2033,7.3188 29.8873,15.7885 l 0.091,0.286 0.121,0.274 c 3.311,7.498 10.293,10.562 17.012,10.562 4.953,0 10.029,-1.705 13.958,-4.683 3.957,-2.999 7.178,-7.668 7.178,-13.564 0,-1.8575 -0.255,-3.9272 -1.114,-6.0713 -7.531,-25.711 -31.768,-39.6934 -66.7272,-39.6934 -20.9897,0 -37.7467,5.3341 -49.3786,14.6343 -11.724,9.3739 -17.8538,22.4932 -17.8538,36.9984 0,10.68 3.2234,20.214 9.8216,28.05 6.5326,7.759 16.0629,13.491 28.1191,17.251 8.1203,2.658 16.3261,4.177 24.0352,5.516 0.7814,0.136 1.5566,0.27 2.3257,0.403 6.9544,1.199 13.411,2.313 19.498,4.046 l 0.028,0.008 0.028,0.008 c 11.163,3.05 15.444,9.176 15.444,15.13 0,4.668 -1.838,8.783 -6.267,11.932 -4.657,3.312 -12.61,5.837 -25.191,5.837 -10.0414,0 -17.7847,-2.542 -23.2963,-6.54 -5.4758,-3.972 -9.0612,-9.598 -10.5166,-16.423 l -0.0397,-0.186 -0.0524,-0.182 c -1.1645,-4.061 -3.5264,-7.208 -6.7138,-9.272 -3.1093,-2.014 -6.6959,-2.806 -10.148,-2.806 -4.95,0 -10.1058,1.705 -14.1163,4.828 -4.0816,3.178 -7.2229,8.062 -7.2229,14.229 0,1.585 0.2984,3.245 0.5092,4.297 2.9977,15.571 11.0049,28.319 23.4466,37.097 12.3703,8.729 28.7416,13.273 48.1502,13.273 23.357,0 41.433,-5.154 53.784,-14.858 12.533,-9.847 18.525,-23.875 18.525,-40.012 0,-13.923 -3.882,-25.525 -11.92,-34.582 -7.944,-8.951 -19.469,-14.88 -33.8,-18.486 -7.761,-2.16 -15.973,-3.602 -23.2862,-4.886 l -0.3968,-0.07 C 87.8755,114.265 81.4964,113.12 76.907,111.565 Z M 176,86.2471 178.317,209.703 c 0.019,5.772 2.996,10.119 6.996,12.813 3.849,2.592 8.643,3.708 13.124,3.708 4.482,0 9.275,-1.116 13.124,-3.708 4.005,-2.697 6.985,-7.051 6.997,-12.834 l 1.477,-122.8662 c 0.001,-0.0991 0.033,-0.2905 0.282,-0.5547 0.271,-0.2863 0.703,-0.5403 1.203,-0.6351 2.441,-0.4629 5.62,-1.3226 8.323,-3.0526 2.849,-1.8243 5.657,-4.9996 5.657,-9.7818 0,-4.1088 -0.192,-11.2837 -0.38,-18.2129 l -0.014,-0.5385 c -0.185,-6.8208 -0.361,-13.3164 -0.361,-16.6888 0,-4.4637 -2.872,-7.3508 -5.601,-8.8337 -2.657,-1.4445 -5.808,-2.0013 -8.625,-2.0013 -2.817,0 -5.967,0.5568 -8.625,2.0013 -2.728,1.4829 -5.6,4.37 -5.6,8.8337 0,2.5074 -0.017,4.6008 -0.032,6.5014 -0.025,3.1709 -0.046,5.8048 0.022,8.9284 -0.174,0.0998 -0.442,0.231 -0.834,0.3724 -1.732,0.6243 -4.358,0.9068 -6.981,0.8305 -0.368,-0.0107 -0.728,-0.0205 -1.08,-0.03 -2.964,-0.0802 -5.372,-0.1454 -7.212,-0.6409 -0.419,-0.1128 -0.692,-0.2212 -0.861,-0.3009 V 53.0111 53.0036 52.996 52.9884 52.9809 52.9733 52.9657 52.9581 52.9504 52.9428 52.9352 52.9275 52.9198 52.9121 52.9044 52.8967 52.889 52.8813 52.8735 52.8658 52.858 52.8502 52.8424 52.8346 52.8268 52.819 52.8111 52.8033 52.7954 52.7876 52.7797 52.7718 52.7639 52.756 v -0.0079 -0.0079 -0.0079 -0.008 -0.0079 -0.008 -0.008 -0.008 -0.0079 -0.008 -0.008 -0.0081 -0.008 -0.008 -0.008 -0.0081 -0.008 -0.0081 -0.0081 -0.008 V 52.588 52.5799 52.5718 52.5637 52.5556 52.5475 52.5393 52.5312 52.5231 52.5149 52.5068 52.4986 52.4905 52.4823 52.4741 52.4659 52.4578 52.4496 52.4414 52.4332 52.425 52.4168 52.4086 52.4003 52.3921 52.3839 52.3757 52.3674 52.3592 52.3509 52.3427 52.3344 52.3262 52.3179 52.3097 52.3014 52.2931 52.2849 52.2766 52.2683 52.26 52.2518 52.2435 52.2352 52.2269 52.2186 52.2103 52.202 52.1937 52.1854 52.1771 52.1688 52.1605 52.1522 52.1439 52.1356 52.1273 52.119 52.1107 52.1024 52.0941 52.0858 52.0775 52.0692 52.0609 52.0526 52.0443 52.036 52.0277 52.0194 52.0111 52.0028 51.9945 51.9862 51.9779 51.9696 51.9613 51.953 51.9447 51.9364 51.9281 51.9198 51.9115 51.9033 51.895 51.8867 51.8784 51.8702 51.8619 51.8536 51.8454 51.8371 51.8289 51.8206 51.8124 51.8041 51.7959 51.7877 51.7794 51.7712 51.763 51.7548 51.7466 51.7384 51.7302 51.722 51.7138 51.7056 51.6974 51.6892 51.6811 51.6729 51.6647 51.6566 51.6484 51.6403 51.6322 51.624 51.6159 51.6078 51.5997 51.5916 51.5835 51.5754 51.5673 51.5592 51.5512 51.5431 51.5351 51.527 51.519 51.511 51.503 51.4949 51.4869 51.479 51.471 51.463 51.455 51.4471 51.4391 51.4312 51.4233 51.4153 51.4074 51.3995 51.3916 51.3837 51.3759 51.368 51.3602 51.3523 51.3445 51.3367 51.3289 51.3211 51.3133 51.3055 51.2977 51.29 51.2822 51.2745 51.2668 51.2591 51.2514 51.2437 51.236 51.2284 51.2207 51.2131 51.2055 c -0.10917,-1.416954 0,0.447272 0,-10.3391 v -0.0358 -0.0358 -0.0358 -0.0358 -0.0359 -0.0359 -0.0359 -0.036 -0.0359 -0.036 -0.036 -0.0361 -0.036 V 40.3634 40.3273 40.2911 40.255 40.2188 40.1826 40.1464 40.1101 40.0739 40.0376 40.0013 39.965 39.9286 39.8923 39.8559 39.8195 39.783 39.7466 39.7101 39.6737 39.6372 39.6006 39.5641 39.5276 39.491 39.4544 39.4178 39.3812 39.3446 39.3079 39.2713 39.2346 39.1979 39.1612 39.1245 39.0878 39.051 v -0.0367 -0.0368 -0.0368 -0.0368 -0.0368 -0.0368 -0.0368 -0.0369 -0.0368 -0.0369 -0.0368 -0.0369 -0.0369 -0.0369 -0.0369 -0.0369 -0.037 -0.0369 -0.0369 -0.037 -0.0369 -0.037 -0.037 -0.037 -0.0369 -0.037 -0.037 -0.037 -0.037 -0.037 -0.0371 -0.037 -0.037 -0.037 -0.0371 -0.037 -0.037 -0.0371 -0.037 -0.037 -0.0371 -0.037 -0.0371 -0.037 -0.0371 -0.037 c 0,-4.5481 -3.261,-7.298 -5.701,-8.6172 -2.586,-1.398 -5.696,-2.0865 -8.573,-2.2126 -2.846,-0.1247 -6.134,0.2729 -8.943,1.7095 -3.014,1.5413 -5.813,4.5579 -5.813,9.1203 v 0.0458 0.0459 0.0461 0.0462 0.0463 0.0465 0.0467 0.0467 0.0469 0.047 0.0472 0.0473 0.0474 0.0475 0.0477 0.0478 0.048 0.048 0.0482 0.0483 0.0484 0.0486 0.0487 0.0488 0.0489 0.049 0.0492 0.0492 0.0494 0.0495 0.0496 0.0498 0.0498 0.05 0.05 0.0502 0.0503 0.0504 0.0505 0.0506 0.0507 0.0508 0.051 0.051 0.0511 0.0512 0.0514 0.0514 0.0515 0.0516 0.0518 0.0518 0.0519 0.052 0.0521 0.0522 0.0523 0.0524 0.0524 0.0526 0.0526 0.0528 0.0528 0.0529 0.053 0.053 0.0532 0.0532 0.0533 0.0534 0.0535 0.0535 0.0537 0.0537 0.0538 0.0538 0.0539 0.0541 0.054 0.0542 0.0542 0.0543 0.0543 0.0545 0.0544 0.0546 0.0546 0.0547 0.0548 0.0548 0.0548 0.055 0.055 0.055 0.0551 0.0552 0.0552 0.0553 0.0553 0.0554 0.0554 0.0555 0.0556 0.0556 0.0556 0.0557 0.0557 0.0558 0.0558 0.0559 0.0559 0.056 0.056 0.056 0.0561 0.0561 0.0562 0.0562 0.0562 0.0563 0.0563 0.0563 0.0564 0.0564 0.0565 0.0564 0.0565 0.0565 0.0566 0.0566 0.0566 0.0566 0.0567 0.0567 0.0567 0.0567 0.0567 0.0568 0.0568 0.0568 0.0568 0.0568 0.0569 0.0569 0.0568 0.0569 0.0569 0.057 0.0569 0.0569 0.057 0.0569 0.057 0.0569 0.057 0.057 0.0569 0.057 0.057 0.057 0.057 0.0569 0.057 0.057 0.057 0.0569 0.057 0.0569 0.057 0.0569 0.0569 0.057 0.0569 0.0569 0.0568 0.0569 0.0569 0.0568 0.0568 0.0568 0.0568 0.0568 0.0567 0.0568 0.0567 0.0566 0.0567 0.0566 0.0567 0.0565 0.0566 0.0565 0.0565 0.0565 0.0564 0.0564 0.0564 0.0564 0.0563 0.0562 0.0563 0.0562 0.0562 0.0561 0.0561 0.056 0.056 0.056 0.0559 0.0559 0.0558 0.0558 0.0557 0.0557 0.0557 0.0556 0.0555 0.0555 0.0555 0.0554 0.0553 0.0553 0.0552 0.0552 0.0551 0.0551 0.055 0.0549 0.0549 0.0548 0.0547 0.0547 0.0547 0.0545 0.0545 0.0545 0.0543 0.0543 0.0542 0.0542 0.0541 0.054 0.0539 0.0539 0.0538 0.0537 0.0536 0.0536 0.0535 0.0534 0.0533 0.0532 0.0532 0.0531 0.053 0.0529 0.0528 0.0528 0.0526 0.0526 0.0524 0.0524 0.0523 0.0522 0.0521 0.0521 0.0519 0.0518 0.0517 0.0517 0.0515 0.0515 0.0513 0.0512 0.0512 0.051 0.051 0.0508 0.0507 0.0506 0.0505 0.0504 0.0503 0.0502 0.0501 0.05 0.0498 0.0498 0.0496 0.0495 0.0494 0.0493 0.0492 0.049 0.049 0.0488 0.0487 0.0485 0.0485 0.0483 0.0482 0.0481 0.0479 0.0478 0.0477 0.0476 0.0474 0.0473 0.0472 0.047 0.0469 0.0468 0.0466 0.0466 0.0463 0.0462 0.0461 0.046 0.0458 0.0457 0.0455 0.0454 0.0452 0.0451 0.045 0.0448 0.0446 0.0446 0.0443 0.0442 0.0441 0.0439 0.0438 0.0436 0.0434 0.0433 0.0431 0.043 0.0428 0.0427 0.0425 0.0424 0.0421 0.0421 0.0418 0.0417 0.0415 0.0414 0.0412 0.041 0.0409 0.0407 0.0405 0.0404 0.0401 0.0401 0.0398 0.0396 0.0395 0.0393 0.0392 0.0389 0.0388 0.0386 0.0384 0.0382 0.0381 0.0378 0.0377 0.0375 0.0373 0.0371 0.037 0.0367 0.0366 0.0363 0.0362 0.036 0.0358 0.0356 0.0354 0.0352 0.035 0.0348 0.0346 0.0344 0.0342 0.034 0.0338 0.0336 0.0334 0.0332 0.033 0.0328 0.0326 0.0323 0.0322 0.0319 0.0318 0.0315 0.0313 0.0311 0.0309 0.0307 0.0304 0.0303 0.03 0.0298 0.0296 0.0293 0.0292 0.0289 0.0287 0.0285 0.0282 0.028 0.0278 0.0276 0.0273 0.0271 0.0269 0.0267 0.0264 0.0261 0.026 0.0257 0.0255 0.0252 0.025 0.0248 0.0245 0.0243 0.024 0.0238 0.0236 0.0233 0.0231 0.0228 0.0226 0.0223 0.0221 0.0219 0.0215 0.0214 0.0211 0.0208 0.0206 0.0203 0.0201 0.0198 0.0195 0.0193 0.0191 0.0188 0.0185 0.0182 0.018 0.0178 0.0174 0.0172 0.017 0.0167 0.0164 0.0161 0.0159 0.0156 0.0153 0.0151 0.0147 0.0146 0.0142 0.0139 0.0137 0.0134 0.0132 0.0128 0.0126 0.0123 0.012 0.0117 0.0114 0.0112 0.0109 0.0106 0.0103 0.01 0.0097 0.0094 0.0092 0.0088 0.0086 0.0082 0.008 0.0077 0.0074 0.0071 0.0068 0.0064 0.0062 0.0059 0.0056 0.0053 0.005 0.0047 0.0043 0.0041 0.0021 0.0017 0.0034 0.0014 c -0.002,0.346 -0.038,7.0292 -0.038,13.326 0,5.0624 3.782,8.0081 6.282,9.429 2.723,1.5473 5.934,2.485 8.388,3.0534 0.366,0.0849 0.672,0.282 0.865,0.5015 0.179,0.2043 0.215,0.3662 0.217,0.4716 z"
     fill="url(#paint1_linear_12_20)"
     stroke="#000000"
     stroke-width="7"
     id="path12"
     style="display:inline"
     sodipodi:nodetypes="ccccsssccsscscscsccccsccscssscccscsccsssccccccccsscccccsccscscssccscsccccccccccccccccccccccccccccccccccccccccccccccccccccccccccccccccccccccccccccccccccccccccccccccccccccccccccccccccccccccccccccccccccccccccccccccccccccccccccccccccccccccccccccccccccccccccccccccccccccccccccccccccccccccccccccccccccccccccccccccccccccccccccccccccccccccccccccccccccccccccccccccccccccccccccccccccccccccccccccccccccscccscccccccccccccccccccccccccccccccccccccccccccccccccccccccccccccccccccccccccccccccccccccccccccccccccccccccccccccccccccccccccccccccccccccccccccccccccccccccccccccccccccccccccccccccccccccccccccccccccccccccccccccccccccccccccccccccccccccccccccccccccccccccccccccccccccccccccccccccccccccccccccccccccccccccccccccccccccccccccccccccccccccccccccccccccccccccccccccccccccccccccccccccccccccccccccccccccccccccccccccccccccccccccccccccccccccccccccccccccccccccccccccccccccccccccccccccccccccccccccccccccccccccccccccccccccccccccccccsscccc" />
  <circle
     cx="198.5"
     cy="204.5"
     r="9.5"
     fill="url(#paint2_linear_12_20)"
     id="circle14" />
  <defs
     id="defs56">
    <filter
       id="filter0_d_12_20"
       x="0"
       y="0"
       width="256"
       height="256"
       filterUnits="userSpaceOnUse"
       color-interpolation-filters="sRGB">
      <feFlood
         flood-opacity="0"
         result="BackgroundImageFix"
         id="feFlood16" />
      <feColorMatrix
         in="SourceAlpha"
         type="matrix"
         values="0 0 0 0 0 0 0 0 0 0 0 0 0 0 0 0 0 0 127 0"
         result="hardAlpha"
         id="feColorMatrix18" />
      <feOffset
         dy="6"
         id="feOffset20" />
      <feGaussianBlur
         stdDeviation="2"
         id="feGaussianBlur22" />
      <feComposite
         in2="hardAlpha"
         operator="out"
         id="feComposite24" />
      <feColorMatrix
         type="matrix"
         values="0 0 0 0 0 0 0 0 0 0 0 0 0 0 0 0 0 0 0.25 0"
         id="feColorMatrix26" />
      <feBlend
         mode="normal"
         in2="BackgroundImageFix"
         result="effect1_dropShadow_12_20"
         id="feBlend28" />
      <feBlend
         mode="normal"
         in="SourceGraphic"
         in2="effect1_dropShadow_12_20"
         result="shape"
         id="feBlend30" />
    </filter>
    <radialGradient
       id="paint0_radial_12_20"
       cx="0"
       cy="0"
       r="1"
       gradientUnits="userSpaceOnUse"
       gradientTransform="translate(128 10) rotate(90.868) scale(363.042)">
      <stop
         stop-color="#FF2222"
         id="stop33" />
      <stop
         offset="0.0001"
         stop-color="#FC5079"
         id="stop35" />
      <stop
         offset="1"
         stop-color="#D00000"
         id="stop37" />
    </radialGradient>
    <linearGradient
       id="paint1_linear_12_20"
       x1="128"
       y1="32"
       x2="128"
       y2="223"
       gradientUnits="userSpaceOnUse">
      <stop
         stop-color="white"
         id="stop40" />
      <stop
         offset="0.489583"
         stop-color="white"
         id="stop42" />
      <stop
         offset="0.546875"
         stop-color="#BEBEBE"
         id="stop44" />
      <stop
         offset="0.760417"
         stop-color="white"
         id="stop46" />
      <stop
         offset="1"
         stop-color="white"
         id="stop48" />
    </linearGradient>
    <linearGradient
       id="paint2_linear_12_20"
       x1="198.5"
       y1="195"
       x2="198.5"
       y2="214"
       gradientUnits="userSpaceOnUse">
      <stop
         stop-color="#E02639"
         id="stop51" />
      <stop
         offset="1"
         stop-color="#D51E2D"
         id="stop53" />
    </linearGradient>
  </defs>
</svg>
